<svg xmlns="http://www.w3.org/2000/svg" width="80" height="80" viewBox="0 0 80 80">
  <path id="Icon_ionic-ios-checkmark-circle" data-name="Icon ionic-ios-checkmark-circle" d="M43.375,3.375a40,40,0,1,0,40,40A39.994,39.994,0,0,0,43.375,3.375ZM63.856,32.317,38.144,58.144h-.019A3.473,3.473,0,0,1,35.894,59.2a3.367,3.367,0,0,1-2.25-1.1L22.875,47.337a.766.766,0,0,1,0-1.1L26.3,42.817a.744.744,0,0,1,1.077,0l8.538,8.538L59.375,27.721a.759.759,0,0,1,.538-.231h0a.7.7,0,0,1,.538.231L63.817,31.2A.758.758,0,0,1,63.856,32.317Z" transform="translate(-3.375 -3.375)" fill="#e9ac00"/>
</svg>
