<svg xmlns="http://www.w3.org/2000/svg" width="97.994" height="97.994" viewBox="0 0 97.994 97.994">
  <path id="Icon_awesome-globe-americas" data-name="Icon awesome-globe-americas" d="M49,.562a49,49,0,1,0,49,49A49,49,0,0,0,49,.562Zm16.258,70.65c-.771.767-1.579,1.571-2.235,2.229A4.721,4.721,0,0,0,61.8,75.557c-.3,1.118-.539,2.248-.942,3.333l-3.436,9.256A39.484,39.484,0,0,1,49,89.073V83.664c.334-2.493-1.509-7.164-4.471-10.125a6.322,6.322,0,0,1-1.851-4.471V62.743a6.3,6.3,0,0,0-3.252-5.526c-2.839-1.571-6.877-3.766-9.643-5.159a28.48,28.48,0,0,1-6.253-4.3l-.158-.142a22.68,22.68,0,0,1-3.568-4.1c-1.853-2.721-4.872-7.2-6.834-10.1a39.728,39.728,0,0,1,20.389-20.13L38.1,15.661a3.161,3.161,0,0,0,4.576-2.827V10.6a39.485,39.485,0,0,1,4.819-.478l5.591,5.591a3.161,3.161,0,0,1,0,4.471l-.927.925-2.043,2.043a1.581,1.581,0,0,0,0,2.234l.927.927a1.581,1.581,0,0,1,0,2.235l-1.581,1.581a1.582,1.582,0,0,1-1.118.462H46.567a1.579,1.579,0,0,0-1.1.448L43.5,32.946a1.582,1.582,0,0,0-.312,1.839l3.08,6.162a1.581,1.581,0,0,1-1.413,2.288H43.746a1.579,1.579,0,0,1-1.035-.387l-1.833-1.592a3.164,3.164,0,0,0-3.072-.612L31.647,42.7a2.361,2.361,0,0,0-.308,4.352l2.189,1.095a13.38,13.38,0,0,0,5.988,1.415c2.078,0,4.463,5.392,6.322,6.322H59.026A6.326,6.326,0,0,1,63.5,57.731l2.7,2.7A6.026,6.026,0,0,1,67.965,64.7a9.194,9.194,0,0,1-2.711,6.516ZM82.386,53.165a4.742,4.742,0,0,1-2.8-1.97l-3.552-5.328a4.736,4.736,0,0,1,0-5.259l3.87-5.8a4.736,4.736,0,0,1,1.826-1.61L84.3,31.911a38.277,38.277,0,0,1,3.853,22.695Z" transform="translate(0 -0.563)" fill="#fff"/>
</svg>
