<svg xmlns="http://www.w3.org/2000/svg" width="400.803" height="83.283" viewBox="0 0 400.803 83.283">
  <g id="Group_76" data-name="Group 76" transform="translate(0 0)">
    <text id="Travelinspo" transform="translate(103.803 66.876)" fill="#fff" font-size="60" font-family="SegoeUI, Segoe UI"><tspan x="0" y="0">Travelinspo</tspan></text>
    <path id="Icon_awesome-paper-plane" data-name="Icon awesome-paper-plane" d="M77.411.523,2.032,44.011a3.906,3.906,0,0,0,.358,7.026l17.288,7.253L66.4,17.112a.975.975,0,0,1,1.4,1.35L28.622,66.193V79.285a3.9,3.9,0,0,0,6.912,2.57L45.861,69.283l20.264,8.489a3.914,3.914,0,0,0,5.367-2.96L83.2,4.556A3.9,3.9,0,0,0,77.411.523Z" transform="translate(-0.001 0.002)" fill="#fff"/>
  </g>
</svg>
