<svg xmlns="http://www.w3.org/2000/svg" width="190" height="190" viewBox="0 0 190 190">
  <path id="Icon_awesome-user-circle" data-name="Icon awesome-user-circle" d="M95,.563a95,95,0,1,0,95,95A94.984,94.984,0,0,0,95,.563Zm0,36.774a33.71,33.71,0,1,1-33.71,33.71A33.71,33.71,0,0,1,95,37.337Zm0,131.774a73.406,73.406,0,0,1-56.119-26.125,42.709,42.709,0,0,1,37.732-22.907,9.373,9.373,0,0,1,2.72.421A50.719,50.719,0,0,0,95,123.143a50.526,50.526,0,0,0,15.667-2.643,9.373,9.373,0,0,1,2.72-.421,42.709,42.709,0,0,1,37.732,22.907A73.406,73.406,0,0,1,95,169.111Z" transform="translate(0 -0.563)" fill="#fff"/>
</svg>
